<svg xmlns="http://www.w3.org/2000/svg" viewBox="0 0 1000 324" fill="none">
  <path d="M413.2 1.6L270.1 322.4H179.5L109.1 62.4C104.9 46.8 101.3 40.8 89.3 34.4C70.1 24 38.5 14.4 10.1 8.4L12.1 1.6H160.1C178.9 1.6 195.7 14 199.7 35.6L234.1 216L323.3 1.6H413.2Z" fill="#1434CB"/>
  <path d="M782.1 219.6C782.5 127.2 656.5 122 657.3 81.2C657.7 69.2 669.3 56.4 694.9 53.2C707.7 51.6 742.9 50.4 782.9 68.8L798.1 5.2C776.9-2.4 749.7-9.6 716.1-9.6C631.3-9.6 571.3 35.2 570.9 100.4C570.5 148.4 614.1 175.2 647.7 191.2C682.5 207.6 694.1 218 693.7 232.8C693.3 255.2 666.5 265.2 641.3 265.6C597.3 266.4 572.1 254 551.7 244.8L536.1 310C556.5 319.6 594.5 328 634.1 328.4C724.5 328.4 782.1 284.4 782.1 219.6Z" fill="#1434CB"/>
  <path d="M951.3 1.6H875.7C856.5 1.6 841.3 8.8 833.3 28L705.7 322.4H796.1L814.1 270H925.3L935.7 322.4H1015.7L951.3 1.6ZM840.1 203.2L886.5 75.6L913.3 203.2H840.1Z" fill="#1434CB"/>
  <path d="M527.3 1.6L455.7 322.4H369.7L441.3 1.6H527.3Z" fill="#1434CB"/>
</svg>
